<?xml version="1.0" encoding="iso-8859-1"?><!DOCTYPE svg PUBLIC "-//W3C//DTD SVG 1.1//EN" "http://www.w3.org/Graphics/SVG/1.1/DTD/svg11.dtd"><svg viewBox="0 0 512 512" xmlns="http://www.w3.org/2000/svg" xmlns:xlink="http://www.w3.org/1999/xlink"><style>:root>svg{display:none}:root>svg:target{display:block}</style><svg viewBox="0 0 284.935 284.936" id="arrow-right" xmlns="http://www.w3.org/2000/svg"><path d="M222.701 135.9L89.652 2.857C87.748.955 85.557 0 83.084 0c-2.474 0-4.664.955-6.567 2.857L62.244 17.133c-1.906 1.903-2.855 4.089-2.855 6.567 0 2.478.949 4.664 2.855 6.567l112.204 112.204L62.244 254.677c-1.906 1.903-2.855 4.093-2.855 6.564 0 2.477.949 4.667 2.855 6.57l14.274 14.271c1.903 1.905 4.093 2.854 6.567 2.854 2.473 0 4.663-.951 6.567-2.854l133.042-133.044c1.902-1.902 2.854-4.093 2.854-6.567s-.945-4.664-2.847-6.571z"/></svg><svg viewBox="0 0 16 24" id="down-arrow" xmlns="http://www.w3.org/2000/svg"><path fill-rule="evenodd" fill="#151515" d="M2.307 16.722l4.983 5.003c.39.39 1.02.39 1.41 0l4.982-5.003a1.002 1.002 0 00-.704-1.708H8.99V2.01c0-.552-.446-1-.996-1a.998.998 0 00-.997 1v13.004H3.012a1.002 1.002 0 00-.705 1.708zm8.265.293l-2.577 2.588-2.578-2.588h5.155z"/></svg><svg viewBox="0 0 512 512" id="left-arrow" xmlns="http://www.w3.org/2000/svg"><path d="M492 236H68.442l70.164-69.824c7.829-7.792 7.859-20.455.067-28.284-7.792-7.83-20.456-7.859-28.285-.068l-104.504 104-.018.019c-7.809 7.792-7.834 20.496-.002 28.314l.018.019 104.504 104c7.828 7.79 20.492 7.763 28.285-.068 7.792-7.829 7.762-20.492-.067-28.284L68.442 276H492c11.046 0 20-8.954 20-20s-8.954-20-20-20z"/></svg><svg viewBox="0 0 120 25" id="logo" xmlns="http://www.w3.org/2000/svg"><path d="M3 3h17L10 20h9v4H2L12 8H3V3zm32 21c-6.075 0-11-4.925-11-11 0-.666.07-1.315.182-1.949l5.727 5.09c1.057 1.71 2.933 2.859 5.09 2.859a6 6 0 100-12c-2.243 0-4.176 1.246-5.205 3.07l-3.822-3.345C27.959 3.871 31.259 2 35 2c6.075 0 11 4.925 11 11s-4.925 11-11 11zm17 0V14l5 3v7h-5zm0-16l19 16V2h-5v11L52 2v6zm41-6H78v22h15v-4H83v-5h9v-4h-9V6h10V2zm26 22h-6l-5-6.875L103 24h-6l8-11-8-11h6l5 6.875L113 2h6l-8 11 8 11z"/></svg><svg viewBox="0 0 15 5" id="min" xmlns="http://www.w3.org/2000/svg"><path fill-rule="evenodd" d="M2 2h12v2H2V2z"/></svg><svg viewBox="0 0 15 15" id="plus" xmlns="http://www.w3.org/2000/svg"><path fill-rule="evenodd" d="M14 9H9v5H7V9H2V7h5V2h2v5h5v2z"/></svg><svg viewBox="0 0 512 512" id="right-arrow" xmlns="http://www.w3.org/2000/svg"><path d="M506.134 241.843l-.018-.019-104.504-104c-7.829-7.791-20.492-7.762-28.285.068-7.792 7.829-7.762 20.492.067 28.284L443.558 236H20c-11.046 0-20 8.954-20 20s8.954 20 20 20h423.557l-70.162 69.824c-7.829 7.792-7.859 20.455-.067 28.284 7.793 7.831 20.457 7.858 28.285.068l104.504-104 .018-.019c7.833-7.818 7.808-20.522-.001-28.314z"/></svg><svg viewBox="0 0 512.001 512.001" id="sort-close" xmlns="http://www.w3.org/2000/svg"><path d="M284.286 256.002L506.143 34.144c7.811-7.811 7.811-20.475 0-28.285-7.811-7.81-20.475-7.811-28.285 0L256 227.717 34.143 5.859c-7.811-7.811-20.475-7.811-28.285 0-7.81 7.811-7.811 20.475 0 28.285l221.857 221.857L5.858 477.859c-7.811 7.811-7.811 20.475 0 28.285a19.938 19.938 0 0014.143 5.857 19.94 19.94 0 0014.143-5.857L256 284.287l221.857 221.857c3.905 3.905 9.024 5.857 14.143 5.857s10.237-1.952 14.143-5.857c7.811-7.811 7.811-20.475 0-28.285L284.286 256.002z"/></svg><svg viewBox="-43 0 512 512" id="svg" xmlns="http://www.w3.org/2000/svg"><path d="M368 512H58.668C26.305 512 0 485.695 0 453.332V58.668C0 26.305 26.305 0 58.668 0H368c32.363 0 58.668 26.305 58.668 58.668v394.664C426.668 485.695 400.363 512 368 512zM58.668 32C43.968 32 32 43.969 32 58.668v394.664C32 468.032 43.969 480 58.668 480H368c14.7 0 26.668-11.969 26.668-26.668V58.668C394.668 43.968 382.699 32 368 32zm0 0"/><path d="M346.668 426.668h-32c-20.59 0-37.336-16.746-37.336-37.336V336c0-20.586 16.746-37.332 37.336-37.332h32c8.832 0 16 7.168 16 16s-7.168 16-16 16h-32a5.335 5.335 0 00-5.336 5.332v53.332a5.338 5.338 0 005.336 5.336h16v-6.23c-6.23-2.22-10.668-8.13-10.668-15.106 0-8.832 7.168-16 16-16h10.668c8.832 0 16 7.168 16 16v37.336c0 8.832-7.168 16-16 16zm0 0M213.332 426.668c-7.187 0-13.48-4.8-15.422-11.715l-26.668-96c-2.367-8.512 2.625-17.32 11.137-19.687 8.45-2.391 17.324 2.62 19.691 11.132l11.262 40.493 11.242-40.493c2.348-8.511 11.18-13.523 19.692-11.132 8.511 2.367 13.504 11.175 11.136 19.687l-26.668 96a15.985 15.985 0 01-15.402 11.715zm0 0M106.668 426.668H80c-8.832 0-16-7.168-16-16s7.168-16 16-16h26.668c5.312 0 10.664-2.754 10.664-8.898 0-6.184-6.676-7.102-10.664-7.102-24.727 0-42.668-16.684-42.668-39.66 0-22.977 18.348-40.34 42.668-40.34h26.664c8.832 0 16 7.168 16 16s-7.168 16-16 16h-26.664c-1.773 0-10.668.402-10.668 8.34 0 7.105 8.172 7.66 10.668 7.66 24.723 0 42.664 16.445 42.664 39.102 0 22.933-18.73 40.898-42.664 40.898zm0 0"/></svg></svg>