<svg xmlns="http://www.w3.org/2000/svg"
 xmlns:xlink="http://www.w3.org/1999/xlink"
 width="16px" height="24px"  viewBox="0 0 16 24">
<path fill-rule="evenodd"  fill="#151515"
 d="M2.3068848,16.722412 C2.3068848,16.722412 7.290039,21.724854 7.290039,21.724854 C7.679199,22.115723 8.309937,22.115723 8.699219,21.724854 C8.699219,21.724854 13.682251,16.722412 13.682251,16.722412 C13.967529,16.43628 14.053101,16.006104 13.898315,15.63208 C13.744568,15.2578125 13.380554,15.014404 12.9776,15.014404 C12.9776,15.014404 8.99115,15.014404 8.99115,15.014404 C8.99115,15.014404 8.99115,2.010498 8.99115,2.010498 C8.99115,1.4577637 8.54541,1.0100098 7.994629,1.0100098 C7.4438477,1.0100098 6.997925,1.4577637 6.997925,2.010498 C6.997925,2.010498 6.997925,15.014404 6.997925,15.014404 C6.997925,15.014404 3.0115356,15.014404 3.0115356,15.014404 C2.6085815,15.014404 2.244629,15.2578125 2.0908203,15.63208 C1.9360962,16.006104 2.0217285,16.43628 2.3068848,16.722412 ZM10.571716,17.01538 C10.571716,17.01538 7.994629,19.60254 7.994629,19.60254 C7.994629,19.60254 5.4174194,17.01538 5.4174194,17.01538 C5.4174194,17.01538 10.571716,17.01538 10.571716,17.01538 Z"/>
</svg>