<svg xmlns="http://www.w3.org/2000/svg"
 xmlns:xlink="http://www.w3.org/1999/xlink"
 width="120px" height="25px"  viewBox="0 0 120 25">
<path 
 d="M2.999939,2.999775 C2.999939,2.999775 19.999939,2.999775 19.999939,2.999775 C19.999939,2.999775 9.999939,19.999783 9.999939,19.999783 C9.999939,19.999783 18.999939,19.999783 18.999939,19.999783 C18.999939,19.999783 18.999939,23.999958 18.999939,23.999958 C18.999939,23.999958 2.0,23.999958 2.0,23.999958 C2.0,23.999958 11.999939,7.999939 11.999939,7.999939 C11.999939,7.999939 2.999939,7.999939 2.999939,7.999939 C2.999939,7.999939 2.999939,2.999775 2.999939,2.999775 ZM34.99994,23.999958 C28.924805,23.999958 24.0,19.074993 24.0,12.999874 C24.0,12.333744 24.069092,11.684601 24.182495,11.051086 C24.182495,11.051086 29.908813,16.14117 29.908813,16.14117 C30.966003,17.850773 32.842163,18.999798 34.99994,18.999798 C38.31366,18.999798 40.99994,16.313534 40.99994,12.999874 C40.99994,9.686214 38.31366,6.9999504 34.99994,6.9999504 C32.756287,6.9999504 30.823486,8.245914 29.794128,10.0699005 C29.794128,10.0699005 25.97168,6.7252083 25.97168,6.7252083 C27.958923,3.871338 31.25885,1.9997902 34.99994,1.9997902 C41.075012,1.9997902 46.0,6.924755 46.0,12.999874 C46.0,19.074993 41.075012,23.999958 34.99994,23.999958 ZM51.999878,23.999958 C51.999878,23.999958 51.999878,13.999863 51.999878,13.999863 C51.999878,13.999863 56.99994,16.99982 56.99994,16.99982 C56.99994,16.99982 56.99994,23.999958 56.99994,23.999958 C56.99994,23.999958 51.999878,23.999958 51.999878,23.999958 ZM51.999878,7.999939 C51.999878,7.999939 70.99994,23.999958 70.99994,23.999958 C70.99994,23.999958 70.99994,1.9997902 70.99994,1.9997902 C70.99994,1.9997902 65.99988,1.9997902 65.99988,1.9997902 C65.99988,1.9997902 65.99988,12.999874 65.99988,12.999874 C65.99988,12.999874 51.999878,1.9997902 51.999878,1.9997902 C51.999878,1.9997902 51.999878,7.999939 51.999878,7.999939 ZM92.99994,1.9997902 C92.99994,1.9997902 77.99994,1.9997902 77.99994,1.9997902 C77.99994,1.9997902 77.99994,23.999958 77.99994,23.999958 C77.99994,23.999958 92.99994,23.999958 92.99994,23.999958 C92.99994,23.999958 92.99994,19.999783 92.99994,19.999783 C92.99994,19.999783 83.0,19.999783 83.0,19.999783 C83.0,19.999783 83.0,14.999847 83.0,14.999847 C83.0,14.999847 92.0,14.999847 92.0,14.999847 C92.0,14.999847 92.0,10.999901 92.0,10.999901 C92.0,10.999901 83.0,10.999901 83.0,10.999901 C83.0,10.999901 83.0,5.999962 83.0,5.999962 C83.0,5.999962 92.99994,5.999962 92.99994,5.999962 C92.99994,5.999962 92.99994,1.9997902 92.99994,1.9997902 ZM118.99988,23.999733 C118.99988,23.999733 112.99988,23.999733 112.99988,23.999733 C112.99988,23.999733 107.99982,17.124847 107.99982,17.124847 C107.99982,17.124847 102.99994,23.999733 102.99994,23.999733 C102.99994,23.999733 96.99988,23.999733 96.99988,23.999733 C96.99988,23.999733 104.99988,12.999874 104.99988,12.999874 C104.99988,12.999874 96.99988,1.9997902 96.99988,1.9997902 C96.99988,1.9997902 102.99994,1.9997902 102.99994,1.9997902 C102.99994,1.9997902 107.99982,8.874897 107.99982,8.874897 C107.99982,8.874897 112.99988,1.9997902 112.99988,1.9997902 C112.99988,1.9997902 118.99988,1.9997902 118.99988,1.9997902 C118.99988,1.9997902 110.99988,12.999874 110.99988,12.999874 C110.99988,12.999874 118.99988,23.999733 118.99988,23.999733 Z"/>
</svg>