<svg xmlns="http://www.w3.org/2000/svg"
 xmlns:xlink="http://www.w3.org/1999/xlink"
 width="15px" height="15px"  viewBox="0 0 15 15">
<path fill-rule="evenodd"
 d="M13.999878,8.999695 C13.999878,8.999695 8.999756,8.999695 8.999756,8.999695 C8.999756,8.999695 8.999756,13.99939 8.999756,13.99939 C8.999756,13.99939 6.999878,13.99939 6.999878,13.99939 C6.999878,13.99939 6.999878,8.999695 6.999878,8.999695 C6.999878,8.999695 1.9997559,8.999695 1.9997559,8.999695 C1.9997559,8.999695 1.9997559,6.999634 1.9997559,6.999634 C1.9997559,6.999634 6.999878,6.999634 6.999878,6.999634 C6.999878,6.999634 6.999878,1.9994507 6.999878,1.9994507 C6.999878,1.9994507 8.999756,1.9994507 8.999756,1.9994507 C8.999756,1.9994507 8.999756,6.999634 8.999756,6.999634 C8.999756,6.999634 13.999878,6.999634 13.999878,6.999634 C13.999878,6.999634 13.999878,8.999695 13.999878,8.999695 Z"/>
</svg>